Motion_pl17
version=1
nRows=9
nColumns=43
inDegrees=yes
endheader
time	pelvis_tilt	pelvis_list	pelvis_rotation	pelvis_tx	pelvis_ty	pelvis_tz	hip_flexion_r	hip_adduction_r	hip_rotation_r	knee_angle_r	ankle_angle_r	subtalar_angle_r	mtp_angle_r	hip_flexion_l	hip_adduction_l	hip_rotation_l	knee_angle_l	ankle_angle_l	subtalar_angle_l	mtp_angle_l	lumbar_extension	lumbar_bending	lumbar_rotation	neck_flexion	neck_lateral_bending	neck_rotation	arm_flex_r	arm_add_r	arm_rot_r	elbow_flex_r	pro_sup_r	wrist_flex_r	wrist_dev_r	hand_finger_flex_r	arm_flex_l	arm_add_l	arm_rot_l	elbow_flex_l	pro_sup_l	wrist_flex_l	wrist_dev_l	hand_finger_flex_l
      2.07250000	     -2.45654142	    -23.82896830	     82.61064049	     -0.02620534	      0.73426299	      0.45598114	     75.93833782	     -1.55664666	     -0.83994524	    -84.61624174	     15.37124062	      8.63252872	     32.49148341	     71.77182329	    -13.49363286	    -13.74859113	    -85.11175156	     15.90540807	     14.80155884	     41.53441156	    -60.09196035	     -3.31289179	     -2.04931662	     17.54219042	     -4.81271376	      3.40901010	     54.29767899	    -26.62476030	     19.20660593	     68.26348865	    127.06359275	      2.23547226	      3.35746357	     -2.72091113	     52.96714546	    -36.34236224	     12.68075223	     71.69681161	    109.16819227	     -9.53260374	      1.49081081	     20.42330079
      2.07500000	     -2.42135132	    -23.67395512	     82.68197295	     -0.02654148	      0.73549811	      0.45558496	     75.64074008	     -1.64989012	     -0.84983842	    -84.46640558	     15.22161521	      8.76716406	     32.46405389	     71.47542432	    -13.37312750	    -13.73984162	    -84.91527029	     15.83303252	     14.74133025	     41.49974171	    -60.17037702	     -3.25043392	     -2.04624099	     17.25562696	     -4.85251318	      3.50290471	     53.63693892	    -26.73362055	     18.80630371	     68.26898169	    126.86411088	      2.32242815	      3.36522848	     -2.87065280	     52.24934010	    -36.04490003	     12.05232929	     71.59837374	    109.20211517	     -9.65496371	      1.44494273	     20.28293469
      2.07750000	     -2.39103608	    -23.67463030	     82.71514326	     -0.02655319	      0.73649835	      0.45548464	     75.51517324	     -1.61835950	     -0.81711444	    -84.30678834	     15.18864426	      8.77925214	     32.45676222	     71.36222306	    -13.32961694	    -13.72406215	    -84.71312836	     15.81159839	     14.73517443	     41.49605950	    -60.08553135	     -3.25309581	     -2.04310643	     17.31551777	     -4.84569912	      3.49893204	     53.19449224	    -26.90400848	     18.86596267	     68.06966215	    126.86287827	      2.38522430	      3.40876857	     -2.86567821	     51.81811761	    -36.12860113	     12.11192978	     71.45283251	    109.22507963	     -9.62078179	      1.47145437	     20.28768935
      2.08000000	     -2.33648467	    -23.57189392	     82.84212996	     -0.02699349	      0.73776071	      0.45510218	     75.25693946	     -1.69320233	     -0.80027641	    -84.17592817	     15.16469843	      8.88139011	     32.38813402	     71.10062234	    -13.17608601	    -13.70413841	    -84.44825422	     15.72299988	     14.55910228	     41.43220528	    -60.13791067	     -3.11670998	     -2.08456573	     17.22851139	     -4.91750870	      3.46286573	     52.62229617	    -26.91531929	     18.43677146	     67.99204610	    126.63748668	      2.81618571	      3.60506275	     -3.04427936	     50.99607744	    -35.85780508	     11.30611788	     71.49971010	    109.48669106	     -9.58000777	      1.38444486	     20.10821995
      2.08250000	     -2.32141832	    -23.57362421	     82.85071053	     -0.02699876	      0.73877368	      0.45501531	     75.12353226	     -1.67434141	     -0.78264680	    -83.97900325	     15.12225220	      8.88565130	     32.37659336	     70.99785036	    -13.11629788	    -13.67541975	    -84.26522797	     15.70128995	     14.55408099	     41.42860307	    -60.04680056	     -3.13758686	     -2.08254663	     17.27288429	     -4.90797290	      3.46193105	     52.18072834	    -27.08813430	     18.50947258	     67.81783845	    126.64546564	      2.88003329	      3.65002747	     -3.03727793	     50.55288409	    -35.96578136	     11.37914240	     71.35106172	    109.51399557	     -9.53559163	      1.41364905	     20.11597760
      2.08500000	     -2.30216136	    -23.57538206	     82.86905222	     -0.02706712	      0.73980782	      0.45490834	     74.98938033	     -1.64941357	     -0.75881062	    -83.79174960	     15.07442732	      8.88416341	     32.36263839	     70.87426935	    -13.05540966	    -13.65594535	    -84.04376241	     15.67439566	     14.54349665	     41.42453063	    -59.95816288	     -3.13930320	     -2.07250279	     17.28187269	     -4.89398829	      3.45625877	     51.72819956	    -27.26827800	     18.55427619	     67.64897582	    126.65006029	      2.94284632	      3.70642882	     -3.02912925	     50.08497479	    -36.05836301	     11.42911032	     71.24587387	    109.53439286	     -9.50129342	      1.43126000	     20.12030749
      2.08750000	     -2.26570570	    -23.58531374	     83.02140596	     -0.02762130	      0.74097526	      0.45471451	     74.83854278	     -1.77756984	     -0.80778071	    -83.60144602	     15.02760336	      8.72066142	     31.99204579	     70.74484694	    -12.82159611	    -13.61176034	    -83.73979025	     15.50908788	     14.08436609	     41.24071832	    -59.93176576	     -2.93049171	     -2.24404799	     17.28356411	     -5.12142386	      3.53379428	     51.19878011	    -27.13304301	     18.01988441	     67.83562201	    126.83143382	      4.18587803	      4.44315412	     -3.33497661	     48.97299890	    -35.81269631	     10.01486529	     71.52694619	    110.50712914	     -8.78516874	      1.19217741	     19.69696253
      2.09000000	     -2.25354521	    -23.57937549	     83.02686319	     -0.02768378	      0.74196146	      0.45461241	     74.70586623	     -1.76859365	     -0.80378468	    -83.41597278	     14.98258983	      8.72345935	     31.97992264	     70.62565476	    -12.77121589	    -13.59388025	    -83.55720279	     15.48664014	     14.08889527	     41.23740167	    -59.83416904	     -2.95034828	     -2.22688344	     17.31614803	     -5.09149251	      3.52155968	     50.74927975	    -27.30648705	     18.07917762	     67.62153650	    126.84681462	      4.22541747	      4.48510194	     -3.33343137	     48.52071261	    -35.88869843	     10.09372356	     71.38565300	    110.51972781	     -8.74927698	      1.21878958	     19.70049706
      2.09250000	     -2.22963905	    -23.59254486	     83.04032639	     -0.02783595	      0.74326306	      0.45456717	     74.53780553	     -1.78395839	     -0.84942540	    -83.11734839	     14.91975720	      8.70169970	     31.94799393	     70.44388842	    -12.71618348	    -13.61592391	    -83.20735922	     15.45495309	     14.08411187	     41.22593436	    -59.76799238	     -2.95565401	     -2.19277330	     17.12906483	     -5.00760465	      3.46472663	     50.27163055	    -27.47766192	     18.00664300	     67.48792546	    126.86465479	      4.23588610	      4.53392792	     -3.36371049	     47.98782360	    -35.93328806	     10.00911546	     71.38941923	    110.51668686	     -8.74746587	      1.19658274	     19.66642252
